<?xml version="1.0" standalone="no"?>
<!DOCTYPE svg PUBLIC "-//W3C//DTD SVG 20010904//EN"
 "http://www.w3.org/TR/2001/REC-SVG-20010904/DTD/svg10.dtd">
<svg version="1.0" xmlns="http://www.w3.org/2000/svg"
 width="512.000000pt" height="512.000000pt" viewBox="0 0 512.000000 512.000000"
 preserveAspectRatio="xMidYMid meet">
<metadata>
Created by potrace 1.11, written by Peter Selinger 2001-2013
</metadata>
<g transform="translate(0.000000,512.000000) scale(0.100000,-0.100000)"
fill="#000000" stroke="none">
<path d="M2425 4949 c-444 -338 -1007 -646 -1381 -753 -129 -37 -220 -53 -384
-66 -80 -6 -154 -15 -165 -20 -19 -7 -23 -24 -38 -176 -43 -425 -27 -818 49
-1244 135 -751 442 -1385 902 -1862 293 -303 613 -522 1034 -707 l117 -51 153
69 c403 183 683 374 968 661 354 356 614 783 783 1290 197 590 269 1275 199
1880 l-17 144 -189 17 c-214 20 -291 35 -458 90 -366 119 -865 398 -1297 723
-77 58 -142 106 -143 105 -2 0 -61 -45 -133 -100z m224 -252 c307 -225 724
-468 1024 -597 246 -105 472 -169 665 -188 51 -5 95 -11 97 -14 10 -10 25
-239 25 -394 0 -199 -12 -380 -41 -589 -163 -1209 -777 -2103 -1751 -2549
l-104 -48 -105 47 c-1049 471 -1687 1482 -1790 2835 -12 163 -7 606 8 670 8
32 12 35 48 38 279 18 582 115 950 302 277 140 620 351 820 504 33 25 62 46
64 46 2 0 42 -28 90 -63z"/>
<path d="M2450 4539 c-121 -89 -403 -268 -545 -347 -361 -200 -724 -340 -985
-379 -58 -8 -111 -17 -119 -19 -12 -4 -13 -50 -8 -287 6 -299 23 -501 63 -736
30 -179 72 -362 88 -378 15 -15 210 -58 361 -79 246 -34 619 -33 850 1 494 73
965 274 1361 583 207 161 417 373 597 605 77 98 207 281 207 289 0 3 -35 8
-78 11 -398 31 -1029 324 -1565 726 -59 45 -113 81 -120 80 -6 0 -55 -32 -107
-70z"/>
<path d="M4301 3705 c-123 -360 -325 -729 -577 -1055 -110 -143 -364 -400
-504 -510 -265 -210 -563 -374 -879 -484 -261 -91 -668 -166 -905 -166 -39 0
-76 -4 -83 -8 -8 -5 8 -35 52 -96 289 -405 692 -736 1093 -899 l62 -26 62 26
c259 105 521 281 756 508 509 491 810 1139 916 1975 22 170 38 474 34 650 l-3
155 -24 -70z"/>
</g>
</svg>
