<svg xmlns="http://www.w3.org/2000/svg" width="19.81" height="18.7" viewBox="0 0 19.81 18.7">
  <defs>
    <style>
      .cls-1, .cls-2, .cls-3, .cls-4 {
        fill: none;
      }

      .cls-1, .cls-2, .cls-3, .cls-4, .cls-5 {
        stroke: #004dd8;
        stroke-width: 0.81px;
      }

      .cls-1, .cls-3 {
        stroke-linecap: round;
      }

      .cls-1, .cls-4, .cls-5 {
        stroke-miterlimit: 10;
      }

      .cls-2, .cls-3 {
        stroke-linejoin: round;
      }

      .cls-5 {
        fill: #394553;
      }
    </style>
  </defs>
  <title>2</title>
  <g id="Слой_2" data-name="Слой 2">
    <g id="Calque_2" data-name="Calque 2">
      <g>
        <path class="cls-1" d="M18.62,3.39c.05-.1-.41,1.47-2.65.67L15.64,4a14.48,14.48,0,0,0-5.73-1h0A14.46,14.46,0,0,0,4.17,4l-.33.11c-2.25.8-2.7-.77-2.66-.67"/>
        <line class="cls-2" x1="9.9" y1="13.82" x2="9.9" y2="2.93"/>
        <g>
          <path class="cls-3" d="M19.4,10.1c0,1.12-1.26,2-2.81,2s-2.82-.9-2.82-2,2.82-5.74,2.82-5.74S19.4,9,19.4,10.1Z"/>
          <line class="cls-4" x1="14.04" y1="9.63" x2="19.14" y2="9.63"/>
        </g>
        <g>
          <path class="cls-3" d="M6,10.1c0,1.12-1.26,2-2.81,2S.4,11.22.4,10.1,3.22,4.36,3.22,4.36,6,9,6,10.1Z"/>
          <line class="cls-4" x1="0.67" y1="9.63" x2="5.76" y2="9.63"/>
        </g>
        <path class="cls-5" d="M10.17.67a.27.27,0,1,1-.54,0,.27.27,0,1,1,.54,0Z"/>
        <path class="cls-4" d="M9.91,15.42a6.13,6.13,0,0,0-5.2,2.87l10.39,0A6.15,6.15,0,0,0,9.91,15.42Z"/>
      </g>
    </g>
  </g>
</svg>
