<svg xmlns="http://www.w3.org/2000/svg" width="17.81" height="17.81" viewBox="0 0 17.81 17.81">
  <defs>
    <style>
      .cls-1, .cls-2 {
        fill: none;
        stroke: #004dd8;
        stroke-width: 0.81px;
      }

      .cls-1 {
        stroke-linecap: square;
        stroke-linejoin: round;
      }

      .cls-2 {
        stroke-miterlimit: 10;
      }
    </style>
  </defs>
  <title>3</title>
  <g id="Слой_2" data-name="Слой 2">
    <g id="Calque_2" data-name="Calque 2">
      <g>
        <path class="cls-1" d="M13.9,11.61a1.13,1.13,0,0,0-1.3-.07l-1.86,1A31.76,31.76,0,0,1,7.86,10h0l0,0h0A31.33,31.33,0,0,1,5.24,7.06l1-1.85a1.14,1.14,0,0,0-.08-1.3L4.14.83A.83.83,0,0,0,3.33.41C2.77.44,1.11,2,1.11,2,.23,2.78.42,3.47.42,3.47c.59,4.19,5,8.23,5.34,8.58s4.39,4.74,8.58,5.33c0,0,.68.2,1.47-.68,0,0,1.56-1.66,1.59-2.23a.83.83,0,0,0-.42-.8Z"/>
        <g>
          <path class="cls-2" d="M9.82,3.61a4.13,4.13,0,0,1,2.85,1.21,4.18,4.18,0,0,1,1.25,2.86"/>
          <path class="cls-2" d="M9.9,1.27a6.55,6.55,0,0,1,4.41,1.88,6.48,6.48,0,0,1,1.94,4.38"/>
        </g>
      </g>
    </g>
  </g>
</svg>
