<svg xmlns="http://www.w3.org/2000/svg" width="19.83" height="17.79" viewBox="0 0 19.83 17.79">
  <defs>
    <style>
      .cls-1, .cls-2 {
        fill: none;
        stroke: #004dd8;
        stroke-width: 0.83px;
      }

      .cls-1 {
        stroke-linejoin: round;
      }

      .cls-2 {
        stroke-miterlimit: 10;
      }
    </style>
  </defs>

  <path class="cls-1" d="M6.73,2.77V1.41a1,1,0,0,1,1-1H12.1a1,1,0,0,1,1,1V2.77"/>
  <path class="cls-1" d="M19.41,11v5.41a1,1,0,0,1-1,1h-17a1,1,0,0,1-1-1V11"/>
  <rect class="cls-2" x="8.67" y="7.31" width="2.48" height="4.13"/>
  <path class="cls-2" d="M11.15,9.4h8.26V5.21a1,1,0,0,0-1-1H1.4a1,1,0,0,0-1,1V9.4H8.67"/>
</svg>
