<svg xmlns="http://www.w3.org/2000/svg" width="20.82" height="19.81" viewBox="0 0 20.82 19.81">
  <defs>
    <style>
      .cls-1, .cls-2, .cls-3 {
        fill: none;
        stroke: #004dd8;
        stroke-width: 0.82px;
      }

      .cls-1, .cls-2 {
        stroke-miterlimit: 10;
      }

      .cls-2 {
        stroke-linecap: round;
      }

      .cls-3 {
        stroke-linejoin: round;
      }
    </style>
  </defs>
  <title>7</title>
  <g id="Слой_2" data-name="Слой 2">
    <g id="Calque_2" data-name="Calque 2">
      <g>
        <g>
          <path class="cls-1" d="M14.66,5.49V1.73A1.33,1.33,0,0,0,13.34.41H4.08L.41,3.6V18.09A1.32,1.32,0,0,0,1.73,19.4H13.34a1.32,1.32,0,0,0,1.32-1.31V15.53"/>
          <polyline class="cls-1" points="5.27 0.67 5.27 4.71 2.8 4.71"/>
          <line class="cls-2" x1="3.15" y1="9.92" x2="10.13" y2="9.92"/>
          <line class="cls-2" x1="3.15" y1="12.57" x2="9.12" y2="12.57"/>
          <line class="cls-2" x1="3.15" y1="15.21" x2="8.52" y2="15.21"/>
        </g>
        <g>
          <g>
            <path class="cls-3" d="M14.51,14l-4.34,1.31L11.67,11,17.3,5.32a1,1,0,0,1,1.34.22L20,6.92a1,1,0,0,1,.21,1.34Z"/>
            <line class="cls-3" x1="14.48" y1="13.46" x2="12.05" y2="11.03"/>
            <line class="cls-3" x1="11.49" y1="14.82" x2="10.71" y2="14.02"/>
          </g>
          <line class="cls-3" x1="13.35" y1="12.28" x2="16.53" y2="9.09"/>
        </g>
        <line class="cls-3" x1="16.15" y1="6.6" x2="18.96" y2="9.4"/>
      </g>
    </g>
  </g>
</svg>
