<svg xmlns="http://www.w3.org/2000/svg" width="26.84" height="18.34" viewBox="0 0 26.84 18.34">
  <defs>
    <style>
      .cls-1, .cls-2 {
        fill: none;
        stroke: #004dd8;
        stroke-linejoin: round;
        stroke-width: 0.84px;
      }

      .cls-2 {
        stroke-linecap: round;
      }
    </style>
  </defs>
  <title>8</title>
  <g id="Слой_2" data-name="Слой 2">
    <g id="Calque_2" data-name="Calque 2">
      <g>
        <g>
          <g>
            <line class="cls-1" x1="7.56" y1="5.96" x2="7.56" y2="14.21"/>
            <line class="cls-1" x1="11.47" y1="5.96" x2="11.47" y2="14.21"/>
            <line class="cls-1" x1="15.37" y1="5.96" x2="15.37" y2="14.21"/>
          </g>
          <line class="cls-1" x1="19.28" y1="5.96" x2="19.28" y2="14.21"/>
        </g>
        <line class="cls-2" x1="26.42" y1="17.92" x2="0.42" y2="17.92"/>
        <polygon class="cls-2" points="5.59 5.84 21.25 5.84 21.25 4.14 13.43 0.42 5.59 4.14 5.59 5.84"/>
        <line class="cls-2" x1="25.04" y1="15.75" x2="1.8" y2="15.75"/>
        <g>
          <g>
            <line class="cls-1" x1="3.66" y1="11.14" x2="3.66" y2="14.21"/>
            <polyline class="cls-1" points="5.94 8.96 2.19 8.96 2.19 10.96 5.94 10.96"/>
          </g>
          <g>
            <line class="cls-1" x1="23.18" y1="11.14" x2="23.18" y2="14.21"/>
            <polyline class="cls-1" points="20.9 8.96 24.65 8.96 24.65 10.96 20.9 10.96"/>
          </g>
        </g>
      </g>
    </g>
  </g>
</svg>
